<?xml version="1.0" encoding="UTF-8" standalone="no"?>
<svg
   xmlns:dc="http://purl.org/dc/elements/1.1/"
   xmlns:cc="http://creativecommons.org/ns#"
   xmlns:rdf="http://www.w3.org/1999/02/22-rdf-syntax-ns#"
   xmlns:svg="http://www.w3.org/2000/svg"
   xmlns="http://www.w3.org/2000/svg"
   xmlns:sodipodi="http://sodipodi.sourceforge.net/DTD/sodipodi-0.dtd"
   xmlns:inkscape="http://www.inkscape.org/namespaces/inkscape"
   width="24"
   height="24"
   viewBox="0 0 24 24"
   version="1.1"
   id="svg18"
   sodipodi:docname="baseline-train-24px.svg"
   inkscape:version="0.92.4 (5da689c313, 2019-01-14)"
   inkscape:export-filename="/tmp/baseline-train-24px.svg.png"
   inkscape:export-xdpi="8192"
   inkscape:export-ydpi="8192">
  <metadata
     id="metadata24">
    <rdf:RDF>
      <cc:Work
         rdf:about="">
        <dc:format>image/svg+xml</dc:format>
        <dc:type
           rdf:resource="http://purl.org/dc/dcmitype/StillImage" />
      </cc:Work>
    </rdf:RDF>
  </metadata>
  <defs
     id="defs22" />
  <sodipodi:namedview
     pagecolor="#ffffff"
     bordercolor="#666666"
     borderopacity="1"
     objecttolerance="10"
     gridtolerance="10"
     guidetolerance="10"
     inkscape:pageopacity="0"
     inkscape:pageshadow="2"
     inkscape:window-width="1918"
     inkscape:window-height="2131"
     id="namedview20"
     showgrid="false"
     inkscape:zoom="39.333333"
     inkscape:cx="9.6458586"
     inkscape:cy="14.496166"
     inkscape:window-x="0"
     inkscape:window-y="0"
     inkscape:window-maximized="0"
     inkscape:current-layer="svg18" />
  <g
     id="g4573">
    <rect
       y="6.2033901"
       x="2.8220339"
       height="12.737288"
       width="13.398306"
       id="rect4564"
       style="fill:#ffffff;fill-opacity:1;stroke-width:1.88601935" />
    <g
       id="g4562">
      <path
         d="m 9.5847458,3.6779661 c -4,0 -8,0.5 -8,4 v 9.4999999 c 0,1.93 1.57,3.5 3.5,3.5 l -1.5,1.5 v 0.5 h 2.23 l 2,-2 h 3.7700002 l 2,2 h 2 v -0.5 l -1.5,-1.5 c 1.93,0 3.5,-1.57 3.5,-3.5 V 7.6779661 c 0,-3.5 -3.58,-4 -8.0000002,-4 z m -4.5,14.9999999 c -0.83,0 -1.5,-0.67 -1.5,-1.5 0,-0.83 0.67,-1.5 1.5,-1.5 0.83,0 1.5,0.67 1.5,1.5 0,0.83 -0.67,1.5 -1.5,1.5 z m 3.5,-7 h -5 V 7.6779661 h 5 z m 2.0000002,0 V 7.6779661 h 5 v 3.9999999 z m 3.5,7 c -0.83,0 -1.5,-0.67 -1.5,-1.5 0,-0.83 0.67,-1.5 1.5,-1.5 0.83,0 1.5,0.67 1.5,1.5 0,0.83 -0.67,1.5 -1.5,1.5 z"
         id="path14"
         inkscape:connector-curvature="0" />
      <path
         fill="none"
         d="M0 0h24v24H0V0z"
         id="path16" />
      <g
         id="g4555"
         transform="translate(0.94067792,10.194916)">
        <ellipse
           style="fill:#ffffff;fill-opacity:1"
           ry="6.1906781"
           rx="6.2161016"
           cy="-2.9364405"
           cx="15.343221"
           id="path43" />
        <path
           sodipodi:nodetypes="scccsssssssccccccc"
           inkscape:connector-curvature="0"
           id="path4"
           d="m 15.021035,-9.6313779 c -2.4,0 -4.52,1.2100001 -5.7800001,3.0500001 0.01,-0.01 0.01,-0.02 0.02,-0.03 -1.6039009,2.628948 -2.1637288,10.9303693 6.7600001,10.9000004 3.39,-0.49 6,-3.39 6,-6.9200004 0,-3.87 -3.13,-7.0000001 -7,-7.0000001 z m 0,12.0000005 c -2.76,0 -5,-2.2400004 -5,-5.0000004 0,-2.76 2.24,-5 5,-5 2.76,0 5,2.24 5,5 0,2.76 -2.24,5.0000004 -5,5.0000004 z m 0.5,-9.0000004 h -1.5 v 5 l 3.62,2.16 0.75,-1.23 -2.87,-1.68 z" />
      </g>
    </g>
  </g>
</svg>
